<mxfile host="app.diagrams.net" modified="2024-02-07T08:02:28.451Z" agent="Mozilla/5.0 (Windows NT 10.0; Win64; x64) AppleWebKit/537.36 (KHTML, like Gecko) Chrome/121.0.0.0 Safari/537.36 Edg/121.0.0.0" etag="Ge-r1Mm56Lg2UJdfU17u" version="23.1.1" type="device">
  <diagram name="第 1 页" id="s0sDwXQwtLyqsF1ROBgU">
    <mxGraphModel dx="1626" dy="759" grid="1" gridSize="10" guides="1" tooltips="1" connect="1" arrows="1" fold="1" page="1" pageScale="1" pageWidth="827" pageHeight="1169" math="0" shadow="0">
      <root>
        <mxCell id="0" />
        <mxCell id="1" parent="0" />
        <mxCell id="2cZOXunVv9EhqBK_HN0j-1" value="text&lt;br&gt;(instructions)" style="rounded=0;whiteSpace=wrap;html=1;" vertex="1" parent="1">
          <mxGeometry x="280" y="761" width="160" height="79" as="geometry" />
        </mxCell>
        <mxCell id="2cZOXunVv9EhqBK_HN0j-2" value="low address" style="text;html=1;strokeColor=none;fillColor=none;align=center;verticalAlign=middle;whiteSpace=wrap;rounded=0;" vertex="1" parent="1">
          <mxGeometry x="180" y="810" width="80" height="30" as="geometry" />
        </mxCell>
        <mxCell id="2cZOXunVv9EhqBK_HN0j-3" value="initialized global and static variables" style="rounded=0;whiteSpace=wrap;html=1;" vertex="1" parent="1">
          <mxGeometry x="280" y="681" width="160" height="79" as="geometry" />
        </mxCell>
        <mxCell id="2cZOXunVv9EhqBK_HN0j-4" value="" style="shape=curlyBracket;whiteSpace=wrap;html=1;rounded=1;flipH=1;labelPosition=right;verticalLabelPosition=middle;align=left;verticalAlign=middle;" vertex="1" parent="1">
          <mxGeometry x="440" y="600" width="20" height="240" as="geometry" />
        </mxCell>
        <mxCell id="2cZOXunVv9EhqBK_HN0j-5" value="read from executable file" style="text;html=1;strokeColor=none;fillColor=none;align=center;verticalAlign=middle;whiteSpace=wrap;rounded=0;" vertex="1" parent="1">
          <mxGeometry x="480" y="731" width="150" height="30" as="geometry" />
        </mxCell>
        <mxCell id="2cZOXunVv9EhqBK_HN0j-6" value="BSS segment&lt;br&gt;uninitialized global and static vaiables" style="rounded=0;whiteSpace=wrap;html=1;" vertex="1" parent="1">
          <mxGeometry x="280" y="600" width="160" height="81" as="geometry" />
        </mxCell>
        <mxCell id="2cZOXunVv9EhqBK_HN0j-7" value="" style="rounded=0;whiteSpace=wrap;html=1;" vertex="1" parent="1">
          <mxGeometry x="280" y="400" width="160" height="200" as="geometry" />
        </mxCell>
        <mxCell id="2cZOXunVv9EhqBK_HN0j-10" value="heap" style="text;html=1;strokeColor=none;fillColor=none;align=center;verticalAlign=middle;whiteSpace=wrap;rounded=0;" vertex="1" parent="1">
          <mxGeometry x="320" y="570" width="60" height="30" as="geometry" />
        </mxCell>
        <mxCell id="2cZOXunVv9EhqBK_HN0j-11" value="" style="endArrow=classic;html=1;rounded=0;" edge="1" parent="1">
          <mxGeometry width="50" height="50" relative="1" as="geometry">
            <mxPoint x="352" y="560" as="sourcePoint" />
            <mxPoint x="352" y="520" as="targetPoint" />
          </mxGeometry>
        </mxCell>
        <mxCell id="2cZOXunVv9EhqBK_HN0j-13" value="stack" style="text;html=1;strokeColor=none;fillColor=none;align=center;verticalAlign=middle;whiteSpace=wrap;rounded=0;" vertex="1" parent="1">
          <mxGeometry x="320" y="410" width="60" height="30" as="geometry" />
        </mxCell>
        <mxCell id="2cZOXunVv9EhqBK_HN0j-16" value="" style="endArrow=classic;html=1;rounded=0;" edge="1" parent="1">
          <mxGeometry width="50" height="50" relative="1" as="geometry">
            <mxPoint x="350.5" y="440" as="sourcePoint" />
            <mxPoint x="350.5" y="480" as="targetPoint" />
          </mxGeometry>
        </mxCell>
        <mxCell id="2cZOXunVv9EhqBK_HN0j-17" value="command-line agruments&lt;br&gt;environment variables" style="rounded=0;whiteSpace=wrap;html=1;" vertex="1" parent="1">
          <mxGeometry x="280" y="320" width="160" height="80" as="geometry" />
        </mxCell>
        <mxCell id="2cZOXunVv9EhqBK_HN0j-18" value="high address" style="text;html=1;strokeColor=none;fillColor=none;align=center;verticalAlign=middle;whiteSpace=wrap;rounded=0;" vertex="1" parent="1">
          <mxGeometry x="175" y="330" width="90" height="30" as="geometry" />
        </mxCell>
        <mxCell id="2cZOXunVv9EhqBK_HN0j-19" value="" style="endArrow=none;dashed=1;html=1;rounded=0;" edge="1" parent="1" target="2cZOXunVv9EhqBK_HN0j-7">
          <mxGeometry width="50" height="50" relative="1" as="geometry">
            <mxPoint x="280" y="440" as="sourcePoint" />
            <mxPoint x="330" y="390" as="targetPoint" />
            <Array as="points">
              <mxPoint x="440" y="440" />
            </Array>
          </mxGeometry>
        </mxCell>
        <mxCell id="2cZOXunVv9EhqBK_HN0j-20" value="" style="endArrow=none;dashed=1;html=1;rounded=0;entryX=1.013;entryY=0.805;entryDx=0;entryDy=0;entryPerimeter=0;" edge="1" parent="1" target="2cZOXunVv9EhqBK_HN0j-7">
          <mxGeometry width="50" height="50" relative="1" as="geometry">
            <mxPoint x="280" y="560" as="sourcePoint" />
            <mxPoint x="330" y="510" as="targetPoint" />
          </mxGeometry>
        </mxCell>
      </root>
    </mxGraphModel>
  </diagram>
</mxfile>
